<svg width="90" height="24" viewBox="0 0 90 24" fill="none" xmlns="http://www.w3.org/2000/svg">
<g clip-path="url(#clip0_3333_238)">
<path fill-rule="evenodd" clip-rule="evenodd" d="M91.4589 3.27405L72.6562 23.9574H75.3208L91.4589 6.21471V3.27405V3.27405Z" fill="#33348E"/>
<g filter="url(#filter0_i_3333_238)">
<path fill-rule="evenodd" clip-rule="evenodd" d="M90.8275 9.01843L77.292 23.9219H79.9556L90.8275 11.958V9.01843V9.01843Z" fill="white"/>
</g>
<path fill-rule="evenodd" clip-rule="evenodd" d="M90.2262 14.812L81.928 23.9366H84.6224L90.2262 17.7527V14.812V14.812Z" fill="#33A457"/>
<g filter="url(#filter1_d_3333_238)">
<path fill-rule="evenodd" clip-rule="evenodd" d="M66.5194 39.9798C66.5194 39.6992 66.4184 39.4178 66.2171 39.257C65.9819 39.0968 65.7452 39.0968 65.51 39.0968H64.2321V42.55H64.6015V40.9436H65.241L66.0813 42.55H66.485L65.6109 40.9436C66.1156 40.9429 66.5194 40.6623 66.5194 39.9798V39.9798ZM65.2072 40.6225H64.601V39.3768H65.4091C65.7785 39.3768 66.1822 39.457 66.1822 39.9792C66.1827 40.6623 65.6109 40.6225 65.2072 40.6225V40.6225ZM15.284 5.69193L13.232 0.191406H10.5743V8.06091L7.6138 0.191406H5.39317L2.3999 8.38195H4.18297L4.82242 6.5352H8.18667L8.85941 8.38195H12.257V2.27909L14.5109 8.38195H16.0588L18.3465 2.39956V8.38195H20.0287V0.191406H17.3372L15.284 5.69193V5.69193ZM6.50401 4.76855H5.49463L6.50401 1.91769V1.99779L7.54722 4.76792H6.50401V4.76855ZM34.0559 2.35982C34.0559 0.633539 32.8779 0.191406 32.0371 0.191406H27.6635V8.38195H29.3456V5.49136H31.5324C32.1381 5.49136 32.3732 6.1738 32.3732 6.85687L32.4071 8.38258H34.0554L33.9877 6.69667C33.9877 5.37152 33.6854 4.76918 32.9112 4.64934C33.8207 4.08611 34.0559 3.36267 34.0559 2.35982V2.35982ZM31.432 3.80481H29.3461V1.95806H31.432C32.1386 1.95806 32.3738 2.48029 32.3738 2.88143C32.3738 3.4434 32.1386 3.80481 31.432 3.80481ZM34.9305 8.38195H36.6126V0.191406H34.9305V8.38195V8.38195ZM53.9713 0.191406V5.85276L51.1123 0.191406H48.6227V7.85971L45.7293 0.191406H43.5087L41.1876 6.5352C41.1876 6.5352 40.3463 6.5352 40.2459 6.49547C39.7074 6.41536 39.0679 5.77266 39.0679 4.32704C39.0679 2.39956 39.9425 1.95806 41.0528 1.95806H42.0961V0.191406H39.9092C39.1361 0.191406 37.4534 0.873847 37.4201 4.24631C37.353 6.49483 38.1938 8.38195 40.0778 8.38195H42.2979L42.9368 6.5352H46.3011L46.9738 8.38195H50.3048V2.39956L53.3324 8.38195H55.654V0.191406H53.9713V0.191406ZM44.6528 4.76855H43.6096L44.619 1.91769L44.6528 1.99779L45.6616 4.76792H44.6528V4.76855V4.76855ZM21.1717 8.38195H26.6885V6.65567H22.8533V5.04922H26.588V3.48314H22.8533V1.95806H26.6885V0.191406H21.1717V8.38195ZM51.5488 17.4151C51.4489 17.4151 50.5061 17.376 50.3719 17.376C49.9682 17.3357 49.6648 17.2146 49.6648 16.7327C49.6648 15.9298 50.3048 16.0099 50.9094 16.0099H53.4999V14.2432H49.9338C48.8573 14.2432 47.9494 15.0871 47.9494 16.6135C47.9494 17.9771 48.3865 19.1017 50.2366 19.1427C50.3719 19.1427 51.1789 19.1818 51.4146 19.2228C51.9193 19.3029 52.0202 19.5445 52.0202 19.9052C52.0202 20.7081 51.3475 20.7081 50.8766 20.7081H48.118V22.4338H51.6498C52.7606 22.4338 53.8028 21.6321 53.8028 20.1058C53.8028 18.78 53.6347 17.5362 51.5488 17.4151V17.4151ZM57.8736 17.4151C57.7726 17.4151 56.8298 17.376 56.6956 17.376C56.2919 17.3357 55.9896 17.2146 55.9896 16.7327C55.9896 15.9298 56.6285 16.0099 57.2003 16.0099H59.7909V14.2432H56.2575C55.1477 14.2432 54.2398 15.0871 54.2398 16.6135C54.2398 17.9771 54.6763 19.1017 56.5614 19.1427C56.6956 19.1427 57.5026 19.1818 57.7383 19.2228C58.2102 19.3029 58.3439 19.5445 58.3439 19.9052C58.3439 20.7081 57.6379 20.7081 57.166 20.7081H54.4079V22.4338H57.974C59.0838 22.4338 60.1259 21.6321 60.1259 20.1058C60.127 18.78 59.9589 17.5362 57.8736 17.4151V17.4151ZM31.701 14.2432H25.78L23.8627 16.7737L21.9787 14.2432H15.3184V22.3947H21.7768L23.7956 19.704L25.7805 22.4338H29.01V19.663H31.2634C32.1381 19.663 33.7531 19.6239 33.7531 16.7327C33.7531 14.7251 32.5418 14.2432 31.701 14.2432ZM20.8684 20.7081H17.0338V19.0626H20.7342V17.5362H17.0338V16.0099H20.8689L22.7529 18.2187L20.8684 20.7081V20.7081ZM27.3279 21.6321L26.1167 19.9456L24.9054 18.2187L26.1167 16.6532L27.3279 15.0468V21.6321ZM31.0954 17.9771H29.0095V16.0099H31.0954C31.8014 16.0099 32.0371 16.5321 32.0371 16.9339C32.0377 17.4952 31.802 17.9771 31.0954 17.9771V17.9771ZM40.9524 16.452C40.9524 14.6854 39.7412 14.2432 38.9342 14.2432H34.5273V22.4338H36.2094V19.5438H38.4295C39.0018 19.5438 39.237 20.2263 39.2703 20.9484L39.3036 22.4338H40.9524L40.8853 20.7472C40.8853 19.4227 40.5825 18.8204 39.775 18.6999C40.7167 18.1789 40.9524 17.4151 40.9524 16.452V16.452ZM38.328 17.8573H36.2089V16.0093H38.328C39.0346 16.0093 39.2698 16.5315 39.2698 16.9333C39.2703 17.4952 39.0013 17.8573 38.328 17.8573ZM41.7932 22.3947H47.2767V20.7081H43.4754V19.0626H47.1763V17.5362H43.4754V16.0099H47.2767V14.2432H41.7932V22.3947V22.3947ZM67.0241 15.0058C65.6109 15.0058 65.3414 13.6813 65.3414 12.276C65.3414 10.3492 65.947 9.34569 66.8888 9.34569C67.7639 9.34569 68.3357 9.94803 68.4028 10.9912H71.0267C70.8254 8.42232 69.3784 6.8966 66.7884 6.8966C64.433 6.8966 62.5833 8.90419 62.5833 12.1568C62.5833 15.4486 64.2649 17.4561 67.0568 17.4561C69.278 17.4561 70.8592 15.8907 71.0949 13.3205H68.4372C68.3357 14.2836 67.8981 15.0058 67.0241 15.0058V15.0058ZM78.0247 12.7182C78.0247 10.9912 77.8556 9.70709 74.9295 9.70709H74.5928C72.4398 9.7872 71.5996 10.6708 71.5996 12.1568H73.9201C73.9883 11.6346 74.2905 11.4731 74.5928 11.4731C74.6599 11.434 74.7271 11.434 74.7952 11.434C75.0304 11.434 75.6022 11.5141 75.6022 12.0363C75.6022 12.4772 75.1646 12.5983 74.5928 12.7188C73.315 12.9591 71.2291 12.9194 71.2291 15.2082C71.2291 16.7333 72.2385 17.4158 73.4154 17.4158C73.853 17.4158 74.2234 17.3767 74.5934 17.2556C74.9971 17.0941 75.3676 16.8538 75.7042 16.4527L75.9727 17.2152H78.16C78.0591 16.9345 78.0258 16.5731 78.0258 16.131V12.7182H78.0247V12.7182ZM74.5928 15.7696H74.3915C73.8868 15.7696 73.6173 15.528 73.6173 15.1673C73.6173 14.5649 74.0548 14.4444 74.5928 14.3246C74.9295 14.2432 75.2999 14.1631 75.6022 14.0029C75.6022 15.2474 75.2999 15.6895 74.5928 15.7696ZM80.7495 11.3924V9.90766H78.5294V17.2139H80.9519V14.324C80.9519 12.7573 81.4556 12.1953 82.4649 12.1953H82.9696V9.74683C82.8687 9.70647 82.7345 9.70646 82.633 9.70646C81.6913 9.7071 81.0851 10.2287 80.7495 11.3924V11.3924ZM87.5784 7.17727V10.6305C87.2751 10.2287 86.9728 9.98777 86.6029 9.82819C86.3677 9.74809 86.0638 9.70773 85.7277 9.70773C84.2818 9.70773 83.1382 11.2738 83.1382 13.6825C83.1382 15.7708 84.0794 17.4164 85.9301 17.4164C86.1653 17.4164 86.401 17.4164 86.6029 17.3363C87.0737 17.1761 87.4098 16.8544 87.8136 16.2521V17.2152H89.9999V7.17727H87.5784V7.17727ZM86.6034 15.3275H86.5352C85.7283 15.3275 85.594 14.4444 85.594 13.6819C85.594 12.879 85.7954 11.9562 86.6034 11.9562C87.4104 11.9562 87.6461 12.8393 87.6461 13.6428C87.6455 14.4438 87.4104 15.2877 86.6034 15.3275V15.3275Z" fill="white"/>
</g>
</g>
<defs>
<filter id="filter0_i_3333_238" x="77.292" y="9.01843" width="13.5354" height="18.9034" filterUnits="userSpaceOnUse" color-interpolation-filters="sRGB">
<feFlood flood-opacity="0" result="BackgroundImageFix"/>
<feBlend mode="normal" in="SourceGraphic" in2="BackgroundImageFix" result="shape"/>
<feColorMatrix in="SourceAlpha" type="matrix" values="0 0 0 0 0 0 0 0 0 0 0 0 0 0 0 0 0 0 127 0" result="hardAlpha"/>
<feOffset dy="4"/>
<feGaussianBlur stdDeviation="2"/>
<feComposite in2="hardAlpha" operator="arithmetic" k2="-1" k3="1"/>
<feColorMatrix type="matrix" values="0 0 0 0 0 0 0 0 0 0 0 0 0 0 0 0 0 0 0.25 0"/>
<feBlend mode="normal" in2="shape" result="effect1_innerShadow_3333_238"/>
</filter>
<filter id="filter1_d_3333_238" x="2.0999" y="-0.108594" width="89.6001" height="44.3586" filterUnits="userSpaceOnUse" color-interpolation-filters="sRGB">
<feFlood flood-opacity="0" result="BackgroundImageFix"/>
<feColorMatrix in="SourceAlpha" type="matrix" values="0 0 0 0 0 0 0 0 0 0 0 0 0 0 0 0 0 0 127 0" result="hardAlpha"/>
<feOffset dx="0.7" dy="0.7"/>
<feGaussianBlur stdDeviation="0.5"/>
<feComposite in2="hardAlpha" operator="out"/>
<feColorMatrix type="matrix" values="0 0 0 0 0 0 0 0 0 0 0 0 0 0 0 0 0 0 0.4 0"/>
<feBlend mode="normal" in2="BackgroundImageFix" result="effect1_dropShadow_3333_238"/>
<feBlend mode="normal" in="SourceGraphic" in2="effect1_dropShadow_3333_238" result="shape"/>
</filter>
<clipPath id="clip0_3333_238">
<rect width="90" height="23" fill="white" transform="translate(0 0.191406)"/>
</clipPath>
</defs>
</svg>
